<svg width="20" height="20" viewBox="0 0 20 20" fill="none" xmlns="http://www.w3.org/2000/svg">
<g id="icon / bin">
<g id="icon">
<path d="M7.9161 1.45801C7.56972 1.45801 7.25945 1.67228 7.13678 1.99622L6.94545 2.50145C6.5353 2.46047 6.15741 2.41956 5.8515 2.38522C5.62282 2.35954 5.43484 2.33758 5.30427 2.32207L5.15364 2.30399L5.10249 2.29774C4.64574 2.24118 4.22898 2.56552 4.17242 3.02226C4.11586 3.47901 4.44027 3.89513 4.89702 3.95169L4.95268 3.9585L5.10766 3.9771C5.24128 3.99297 5.43284 4.01535 5.66553 4.04147C6.1305 4.09368 6.76158 4.16108 7.4237 4.22151C8.31685 4.30302 9.29587 4.37467 9.99944 4.37467C10.703 4.37467 11.682 4.30302 12.5752 4.22151C13.2373 4.16108 13.8684 4.09368 14.3333 4.04147C14.566 4.01535 14.7576 3.99297 14.8912 3.9771L15.0462 3.9585L15.1017 3.9517C15.5585 3.89514 15.883 3.47901 15.8265 3.02226C15.7699 2.56552 15.3538 2.2411 14.897 2.29766L14.8452 2.30399L14.6946 2.32207C14.564 2.33758 14.376 2.35954 14.1474 2.38522C13.8415 2.41956 13.4636 2.46047 13.0534 2.50145L12.8621 1.99622C12.7394 1.67228 12.4292 1.45801 12.0828 1.45801H7.9161Z" fill="#6F7A8D"/>
<path d="M9.1661 9.79134C9.1661 9.3311 8.79301 8.95801 8.33277 8.95801C7.87253 8.95801 7.49944 9.3311 7.49944 9.79134V13.958C7.49944 14.4182 7.87253 14.7913 8.33277 14.7913C8.79301 14.7913 9.1661 14.4182 9.1661 13.958V9.79134Z" fill="#6F7A8D"/>
<path d="M11.6661 8.95801C12.1263 8.95801 12.4994 9.3311 12.4994 9.79134V13.958C12.4994 14.4182 12.1263 14.7913 11.6661 14.7913C11.2059 14.7913 10.8328 14.4182 10.8328 13.958V9.79134C10.8328 9.3311 11.2059 8.95801 11.6661 8.95801Z" fill="#6F7A8D"/>
<path fill-rule="evenodd" clip-rule="evenodd" d="M15.7575 6.70847C15.833 5.65117 14.9215 4.80354 13.8855 4.92326C12.8255 5.04576 11.1897 5.20801 9.99944 5.20801C8.80915 5.20801 7.17339 5.04576 6.11336 4.92326C5.07742 4.80354 4.16587 5.65117 4.24139 6.70847L4.95534 16.7037C5.00946 17.4614 5.57382 18.102 6.34831 18.2185C7.17881 18.3434 8.70272 18.5428 10.0004 18.5413C11.2821 18.5399 12.8122 18.3412 13.6464 18.2175C14.4222 18.1024 14.9894 17.4613 15.0437 16.7014L15.7575 6.70847ZM14.0769 6.5789C14.0797 6.57857 14.082 6.57877 14.082 6.57877L14.0842 6.57927C14.086 6.57991 14.0889 6.58143 14.0918 6.58415C14.0937 6.58595 14.0951 6.58815 14.0951 6.58815L14.095 6.58973L13.382 16.5718C12.5565 16.6938 11.1415 16.8734 9.99847 16.8747C8.84301 16.876 7.43683 16.6962 6.61695 16.5735L5.90382 6.58973L5.90376 6.58815C5.90376 6.58815 5.90518 6.58595 5.90708 6.58415C5.90995 6.58143 5.91286 6.57991 5.91471 6.57927L5.91691 6.57877C5.91691 6.57877 5.91913 6.57857 5.92202 6.5789C6.98392 6.70162 8.70397 6.87467 9.99944 6.87467C11.2949 6.87467 13.0149 6.70162 14.0769 6.5789Z" fill="#6F7A8D"/>
</g>
</g>
</svg>
