<svg width="21" height="20" viewBox="0 0 21 20" fill="none" xmlns="http://www.w3.org/2000/svg">
<path fill-rule="evenodd" clip-rule="evenodd" d="M2.58333 0.833008C2.1231 0.833008 1.75 1.2061 1.75 1.66634C1.75 2.12658 2.1231 2.49967 2.58333 2.49967C3.19035 2.49967 3.72066 2.94074 3.82984 3.56135L4.40141 6.81025L4.40192 6.81312L4.76813 8.85974C4.99716 10.1398 5.18006 11.162 5.4113 11.974C5.64977 12.8114 5.95884 13.5004 6.48376 14.0827C6.8443 14.4827 7.26614 14.825 7.73364 15.0982C8.41088 15.494 9.15747 15.6683 10.0451 15.7517C10.9099 15.833 11.9817 15.833 13.3319 15.833H13.7424C14.3429 15.833 14.838 15.833 15.2459 15.8033C15.6708 15.7724 16.0575 15.7065 16.4327 15.5466C16.9799 15.3133 17.4591 14.9466 17.8221 14.4787C18.0727 14.1556 18.2291 13.7994 18.3574 13.4015C18.4798 13.0218 18.5915 12.5538 18.7256 11.9915L18.7425 11.9206C18.9465 11.0659 19.1131 10.3676 19.1937 9.79739C19.2767 9.21068 19.2858 8.65884 19.0969 8.12693C18.8313 7.37918 18.3086 6.74966 17.6246 6.33955C17.1428 6.05065 16.598 5.93761 15.9935 5.88468C15.4033 5.83299 14.6638 5.833 13.7512 5.83301H5.92175L5.4713 3.27257C5.22412 1.86754 4.01195 0.833008 2.58333 0.833008ZM13.7122 7.49967C14.673 7.49967 15.3393 7.50043 15.8481 7.54499C16.351 7.58903 16.6024 7.66994 16.7676 7.76897C17.128 7.98507 17.3934 8.31044 17.5264 8.68476C17.5843 8.84795 17.6108 9.08806 17.5435 9.56392C17.4751 10.0474 17.3276 10.6693 17.1118 11.574C16.9684 12.1749 16.8713 12.5795 16.7711 12.8901C16.6746 13.1895 16.5921 13.3451 16.5052 13.4571C16.3193 13.6968 16.07 13.8894 15.7791 14.0134C15.639 14.0731 15.455 14.1171 15.1249 14.1411C14.7847 14.1658 14.3504 14.1663 13.7122 14.1663H13.374C11.9724 14.1663 10.9788 14.1655 10.2011 14.0924C9.43732 14.0206 8.95978 13.8844 8.5746 13.6593C8.25362 13.4717 7.96605 13.2378 7.72168 12.9668C7.43152 12.6449 7.21522 12.2233 7.01424 11.5175C6.80866 10.7956 6.63956 9.85618 6.40092 8.52249L6.2179 7.49967H13.7122Z" fill="#101928"/>
<path d="M9.25 17.2913C9.25 17.8666 8.78363 18.333 8.20833 18.333C7.63304 18.333 7.16667 17.8666 7.16667 17.2913C7.16667 16.716 7.63304 16.2497 8.20833 16.2497C8.78363 16.2497 9.25 16.716 9.25 17.2913Z" fill="#101928"/>
<path d="M15.7083 18.333C16.2836 18.333 16.75 17.8666 16.75 17.2913C16.75 16.716 16.2836 16.2497 15.7083 16.2497C15.133 16.2497 14.6667 16.716 14.6667 17.2913C14.6667 17.8666 15.133 18.333 15.7083 18.333Z" fill="#101928"/>
</svg>