<svg width="33" height="32" viewBox="0 0 33 32" fill="currentColor" xmlns="http://www.w3.org/2000/svg">
<g id="icon / multiply">
<path id="icon" d="M10.0056 7.51552C9.48494 6.99483 8.64072 6.99483 8.12002 7.51552C7.59932 8.03622 7.59932 8.88044 8.12002 9.40114L14.7197 16.0008L8.12002 22.6005C7.59932 23.1212 7.59932 23.9654 8.12002 24.4861C8.64072 25.0068 9.48494 25.0068 10.0056 24.4861L16.6053 17.8864L23.205 24.4861C23.7257 25.0068 24.5699 25.0068 25.0906 24.4861C25.6113 23.9654 25.6113 23.1212 25.0906 22.6005L18.4909 16.0008L25.0906 9.40114C25.6113 8.88044 25.6113 8.03622 25.0906 7.51552C24.5699 6.99483 23.7257 6.99483 23.205 7.51552L16.6053 14.1152L10.0056 7.51552Z" fill="#6F7A8D"/>
</g>
</svg>
