<svg width="21" height="20" viewBox="0 0 21 20" fill="none" xmlns="http://www.w3.org/2000/svg">
<g id="icon / heart">
<path id="icon" fill-rule="evenodd" clip-rule="evenodd" d="M9.21586 2.27549C9.74943 2.54572 10.1838 2.862 10.5007 3.12792C10.8175 2.862 11.2519 2.54572 11.7854 2.27549C12.9946 1.66312 14.7348 1.28437 16.6917 2.27548C17.9418 2.90859 18.7875 3.86655 19.248 5.02963C19.7023 6.17708 19.764 7.47611 19.5453 8.79408C19.1727 11.0396 17.638 13.0433 16.0617 14.5871C14.4657 16.1502 12.7158 17.349 11.7289 17.974C10.9735 18.4525 10.0278 18.4525 9.27244 17.9741C8.28552 17.349 6.53558 16.1502 4.9396 14.5871C3.3633 13.0433 1.8285 11.0396 1.45592 8.79408C1.23723 7.47611 1.29896 6.17708 1.75326 5.02963C2.21376 3.86655 3.05939 2.90859 4.30948 2.27548C6.26648 1.28437 8.00672 1.66312 9.21586 2.27549ZM9.86578 4.82075C10.0241 5.00697 10.2562 5.11432 10.5007 5.11432C10.7447 5.11432 10.9765 5.00733 11.1348 4.82171C11.1349 4.8215 11.1351 4.82129 11.1353 4.82107C11.1355 4.82082 11.1357 4.82057 11.136 4.82032L11.1486 4.80612C11.1616 4.79173 11.1833 4.76803 11.2135 4.73678C11.2741 4.67415 11.3675 4.58206 11.4906 4.47436C11.7387 4.25732 12.0968 3.98604 12.5385 3.76234C13.406 3.32299 14.573 3.0707 15.9387 3.76234C16.8304 4.21392 17.3898 4.86381 17.6983 5.64317C18.0131 6.43817 18.0845 7.41618 17.9011 8.52127C17.6166 10.2361 16.3938 11.929 14.8955 13.3964C13.4169 14.8446 11.7752 15.9719 10.8371 16.566C10.6263 16.6996 10.3751 16.6996 10.1642 16.566C9.2261 15.9719 7.58444 14.8446 6.10579 13.3964C4.60747 11.929 3.38463 10.2361 3.1001 8.52127C2.91674 7.41618 2.98813 6.43817 3.30289 5.64317C3.61146 4.86381 4.17084 4.21392 5.0625 3.76234C6.42819 3.0707 7.59531 3.32298 8.46284 3.76234C8.90454 3.98604 9.26261 4.25733 9.51072 4.47437C9.63384 4.58207 9.72732 4.67417 9.78784 4.7368C9.81803 4.76805 9.83982 4.79175 9.85278 4.80614L9.86578 4.82075Z" fill="#101928"/>
</g>
</svg>
