<svg width="1024" height="291" viewBox="0 0 1024 291" fill="none" xmlns="http://www.w3.org/2000/svg">
<g clip-path="url(#clip0_561_59722)">
<rect width="480" height="1047" transform="translate(1024 -189) rotate(90)" fill="url(#paint0_linear_561_59722)"/>
<g clip-path="url(#clip1_561_59722)">
<path d="M447.611 159.543C448.663 161.614 449.189 164.019 449.189 166.745C449.189 169.471 448.663 171.854 447.611 173.894C446.559 175.933 445.1 177.511 443.232 178.638C441.364 179.765 439.239 180.323 436.856 180.323C433.432 180.323 430.759 179.1 428.827 176.642V190.37H421.518V153.371H427.893L428.623 157.053C429.525 155.84 430.673 154.874 432.069 154.154C433.464 153.425 435.085 153.07 436.91 153.07C439.293 153.07 441.407 153.628 443.253 154.756C445.1 155.883 446.549 157.471 447.611 159.553V159.543ZM441.783 166.638C441.783 164.362 441.182 162.516 439.969 161.121C438.756 159.725 437.167 159.017 435.203 159.017C433.239 159.017 431.661 159.714 430.491 161.121C429.321 162.527 428.731 164.362 428.731 166.638C428.731 168.913 429.321 170.813 430.491 172.23C431.661 173.647 433.239 174.355 435.203 174.355C437.167 174.355 438.756 173.636 439.969 172.209C441.182 170.781 441.783 168.913 441.783 166.638Z" fill="white"/>
<path d="M477.54 165.553V180.011H470.23V165.864C470.23 163.653 469.78 161.968 468.878 160.809C467.976 159.65 466.635 159.07 464.831 159.07C463.028 159.07 461.504 159.714 460.452 160.991C459.4 162.269 458.874 164.05 458.874 166.326V180.011H451.564V143.731H458.874V156.633C460.838 154.25 463.468 153.059 466.753 153.059C470.037 153.059 472.474 154.025 474.502 155.957C476.52 157.889 477.529 161.088 477.529 165.542L477.54 165.553Z" fill="white"/>
<path d="M481.188 173.839C480.029 171.767 479.449 169.385 479.449 166.69C479.449 163.996 480.029 161.613 481.188 159.542C482.347 157.47 483.99 155.871 486.115 154.744C488.24 153.617 490.698 153.059 493.5 153.059C496.301 153.059 498.759 153.617 500.884 154.744C503.01 155.871 504.652 157.459 505.811 159.542C506.97 161.613 507.55 163.996 507.55 166.69C507.55 169.385 506.97 171.81 505.811 173.871C504.652 175.932 503.01 177.521 500.884 178.637C498.759 179.753 496.301 180.322 493.5 180.322C490.698 180.322 488.24 179.764 486.115 178.637C483.99 177.51 482.347 175.911 481.188 173.839ZM500.133 166.69C500.133 164.415 499.532 162.558 498.341 161.141C497.149 159.724 495.539 159.016 493.5 159.016C491.46 159.016 489.893 159.724 488.702 161.141C487.51 162.558 486.909 164.404 486.909 166.69C486.909 168.977 487.51 170.823 488.702 172.24C489.893 173.657 491.492 174.365 493.5 174.365C495.507 174.365 497.149 173.657 498.341 172.24C499.532 170.823 500.133 168.977 500.133 166.69Z" fill="white"/>
<path d="M535.875 165.553V180.011H528.565V165.971C528.565 161.377 526.773 159.08 523.177 159.08C521.277 159.08 519.807 159.724 518.776 161.002C517.735 162.279 517.22 164.071 517.22 166.39V180.022H509.91V153.37H516.286L516.962 156.687C517.896 155.549 519.023 154.658 520.333 154.014C521.642 153.37 523.274 153.059 525.206 153.059C528.318 153.059 530.873 154.025 532.88 155.957C534.888 157.889 535.886 161.087 535.886 165.542L535.875 165.553Z" fill="white"/>
<path d="M544.194 154.744C546.212 153.617 548.552 153.059 551.214 153.059C553.876 153.059 556.28 153.585 558.341 154.636C560.402 155.688 562.001 157.18 563.161 159.091C564.32 161.012 564.91 163.266 564.953 165.853C564.953 166.787 564.889 167.614 564.749 168.343H545.418V168.547C545.59 170.479 546.212 172.004 547.285 173.109C548.359 174.215 549.829 174.762 551.686 174.762C553.168 174.762 554.402 174.44 555.389 173.807C556.377 173.163 557.021 172.229 557.332 170.984H564.535C564.255 172.744 563.59 174.333 562.517 175.75C561.443 177.167 560.026 178.283 558.266 179.088C556.506 179.904 554.488 180.301 552.202 180.301C549.228 180.301 546.663 179.753 544.505 178.648C542.348 177.542 540.684 175.964 539.536 173.903C538.376 171.843 537.797 169.46 537.797 166.723C537.797 163.986 538.355 161.549 539.482 159.488C540.609 157.427 542.176 155.839 544.194 154.722V154.744ZM555.647 159.821C554.563 158.941 553.189 158.501 551.525 158.501C549.862 158.501 548.595 158.962 547.511 159.875C546.427 160.787 545.772 162.021 545.568 163.578H557.644C557.397 161.957 556.742 160.701 555.647 159.821Z" fill="white"/>
<path d="M579.55 180.321C576.996 180.321 574.752 179.753 572.81 178.615C570.878 177.477 569.375 175.878 568.301 173.817C567.228 171.756 566.691 169.405 566.691 166.743C566.691 164.081 567.239 161.731 568.323 159.691C569.407 157.652 570.942 156.074 572.906 154.947C574.871 153.82 577.135 153.262 579.69 153.262C582.803 153.262 585.368 154.088 587.386 155.752C589.404 157.416 590.681 159.691 591.196 162.589H586.892C586.474 160.893 585.615 159.552 584.305 158.543C582.996 157.544 581.407 157.04 579.54 157.04C577.017 157.04 574.967 157.942 573.4 159.734C571.833 161.527 571.039 163.867 571.039 166.733C571.039 169.598 571.822 171.992 573.4 173.806C574.967 175.62 577.017 176.522 579.54 176.522C581.472 176.522 583.103 176.017 584.413 175.019C585.722 174.021 586.57 172.636 586.957 170.876H591.207C590.649 173.817 589.361 176.114 587.322 177.799C585.282 179.473 582.695 180.311 579.55 180.311V180.321Z" fill="white"/>
<path d="M594.633 173.838C593.528 171.799 592.98 169.448 592.98 166.786C592.98 164.124 593.528 161.774 594.633 159.734C595.739 157.695 597.285 156.106 599.27 154.968C601.256 153.831 603.532 153.262 606.086 153.262C608.641 153.262 610.916 153.831 612.902 154.968C614.888 156.106 616.434 157.695 617.539 159.734C618.645 161.774 619.192 164.124 619.192 166.786C619.192 169.448 618.645 171.799 617.539 173.838C616.434 175.878 614.888 177.466 612.902 178.604C610.916 179.742 608.641 180.311 606.086 180.311C603.532 180.311 601.256 179.742 599.27 178.604C597.285 177.466 595.739 175.878 594.633 173.838ZM613.75 171.82C614.48 170.339 614.834 168.654 614.834 166.797C614.834 164.94 614.469 163.255 613.75 161.774C613.031 160.292 612.001 159.133 610.67 158.296C609.339 157.469 607.814 157.051 606.086 157.051C604.358 157.051 602.834 157.469 601.503 158.296C600.172 159.122 599.142 160.282 598.422 161.774C597.693 163.255 597.338 164.929 597.338 166.797C597.338 168.665 597.703 170.339 598.422 171.82C599.152 173.302 600.172 174.461 601.503 175.287C602.834 176.114 604.358 176.532 606.086 176.532C607.814 176.532 609.339 176.114 610.67 175.287C612.001 174.461 613.031 173.302 613.75 171.82Z" fill="white"/>
<path d="M661.888 164.768V179.999H657.637V165.026C657.637 162.471 657.09 160.518 656.006 159.165C654.922 157.813 653.376 157.147 651.369 157.147C649.158 157.147 647.419 157.92 646.163 159.477C644.907 161.033 644.274 163.158 644.274 165.852V179.999H640.023V165.026C640.023 162.471 639.476 160.518 638.37 159.165C637.265 157.813 635.698 157.147 633.658 157.147C631.511 157.147 629.815 157.963 628.56 159.605C627.304 161.248 626.67 163.394 626.67 166.056V179.999H622.42V153.584H626.102L626.67 157.212C628.57 154.582 631.146 153.272 634.388 153.272C636.288 153.272 637.973 153.691 639.444 154.539C640.914 155.387 642.009 156.643 642.739 158.296C644.639 154.947 647.698 153.272 651.905 153.272C654.879 153.272 657.283 154.206 659.14 156.074C660.986 157.942 661.909 160.84 661.909 164.779L661.888 164.768Z" fill="white"/>
<path d="M350.43 189.692V204.999H338.087C338.087 201.467 338.087 198.011 338.087 194.544C338.076 184.218 337.904 173.882 338.076 163.556C338.334 147.198 350.86 134.328 365.994 132.289C382.836 130.013 398.485 141.455 401.791 157.545C405.451 175.32 394.149 192.193 376.76 195.778C367.229 197.743 358.588 195.521 350.43 189.692ZM378.832 173.087C371.308 177.918 365.758 177.424 360.531 171.488C356.978 167.463 357.268 160.668 361.175 156.139C365.533 151.094 371.619 150.836 378.821 155.334C380.592 153.563 382.342 151.813 384.091 150.064C376.546 142.367 363.139 142.539 355.915 150.493C347.704 159.541 349.046 171.735 357.01 178.959C365.78 186.912 378.445 184.733 383.877 178.433C382.181 176.64 380.506 174.858 378.832 173.087Z" fill="white"/>
</g>
</g>
<defs>
<linearGradient id="paint0_linear_561_59722" x1="432.074" y1="1099.59" x2="-741.593" y2="-100.333" gradientUnits="userSpaceOnUse">
<stop stop-color="#02BF6F"/>
<stop offset="1" stop-opacity="0.7"/>
</linearGradient>
<clipPath id="clip0_561_59722">
<rect width="480" height="1047" fill="white" transform="translate(1024 -189) rotate(90)"/>
</clipPath>
<clipPath id="clip1_561_59722">
<rect width="323.89" height="73" fill="white" transform="translate(338 132)"/>
</clipPath>
</defs>
</svg>
