<svg width="28" height="32" viewBox="0 0 28 32" fill="none" xmlns="http://www.w3.org/2000/svg">
<path id="Vector" d="M5.50066 24.8902V31.4687H0.195453C0.195453 29.9509 0.195453 28.4655 0.195453 26.9754C0.19084 22.5375 0.117028 18.0949 0.19084 13.657C0.301557 6.62649 5.68518 1.09524 12.1898 0.218724C19.428 -0.759278 26.154 4.15841 27.5749 11.0736C29.148 18.7131 24.2903 25.9651 16.8169 27.5059C12.7203 28.3501 9.0067 27.3952 5.50066 24.8902ZM17.7072 17.7536C14.4734 19.8295 12.0883 19.6173 9.8417 17.0662C8.31472 15.3362 8.43928 12.4161 10.1185 10.4693C11.9915 8.30108 14.6072 8.19037 17.7026 10.1233C18.4638 9.36213 19.2158 8.61017 19.9677 7.85822C16.7246 4.55054 10.9627 4.62435 7.85801 8.04274C4.3289 11.9317 4.90555 17.1723 8.32856 20.277C12.0976 23.6954 17.5412 22.7589 19.8755 20.051C19.1466 19.2805 18.4269 18.5148 17.7072 17.7536Z" fill="#02BF6F"/>
</svg>
