<svg width="236" height="202" viewBox="0 0 236 202" fill="none" xmlns="http://www.w3.org/2000/svg">
<path opacity="0.01" d="M156.16 305.83C92.8279 314.731 32.2818 257.488 21.0758 177.753C9.86972 98.0181 52.2923 26.3047 115.625 17.4039C178.957 8.5031 239.503 65.7452 250.709 145.48C261.915 225.216 219.493 296.929 156.16 305.83Z" stroke="url(#paint0_linear_561_44592)" stroke-width="0.798703"/>
<path opacity="0.0302041" d="M153.5 306.465C90.6246 313.074 32.8324 254.874 24.5699 176.261C16.3073 97.6486 60.7361 28.7046 123.612 22.0961C186.487 15.4876 244.279 73.6877 252.542 152.3C260.804 230.913 216.376 299.857 153.5 306.465Z" stroke="url(#paint1_linear_561_44592)" stroke-width="0.798703"/>
<path opacity="0.0504082" d="M151.004 306.904C88.667 311.263 33.621 252.226 28.2098 174.843C22.7986 97.4594 69.0926 31.3359 131.429 26.9769C193.766 22.6179 248.812 81.655 254.223 159.038C259.635 236.422 213.341 302.545 151.004 306.904Z" stroke="url(#paint2_linear_561_44592)" stroke-width="0.798703"/>
<path opacity="0.0706122" d="M148.685 307.164C86.966 309.32 34.6533 249.565 31.9975 173.512C29.3417 97.4594 77.3586 34.201 139.077 32.0457C200.796 29.8904 253.108 89.6453 255.764 165.698C258.42 241.751 210.403 305.009 148.685 307.164Z" stroke="url(#paint3_linear_561_44592)" stroke-width="0.798703"/>
<path opacity="0.0908163" d="M146.543 307.249C85.5193 307.249 35.9224 246.893 35.9224 172.268C35.9224 97.6423 85.5192 37.2871 146.543 37.2871C207.566 37.2871 257.163 97.6423 257.163 172.268C257.163 246.893 207.566 307.249 146.543 307.249Z" stroke="url(#paint4_linear_561_44592)" stroke-width="0.798703"/>
<path opacity="0.11102" d="M144.588 307.166C84.3334 305.062 37.4299 244.221 39.9828 171.114C42.5358 98.0064 93.5691 40.5861 153.823 42.6902C214.077 44.7943 260.981 105.635 258.428 178.742C255.875 251.85 204.842 309.27 144.588 307.166Z" stroke="url(#paint5_linear_561_44592)" stroke-width="0.798703"/>
<path opacity="0.131224" d="M142.823 306.932C83.4099 302.778 39.1725 241.565 44.1725 170.061C49.1725 98.5576 101.499 44.0973 160.912 48.2519C220.325 52.4064 264.563 113.619 259.563 185.123C254.563 256.627 202.237 311.087 142.823 306.932Z" stroke="url(#paint6_linear_561_44592)" stroke-width="0.798703"/>
<path opacity="0.151429" d="M141.255 306.55C82.7508 300.401 41.1479 238.927 48.4863 169.107C55.8247 99.2865 109.3 47.805 167.803 53.954C226.307 60.103 267.91 121.578 260.572 191.398C253.233 261.218 199.758 312.699 141.255 306.55Z" stroke="url(#paint7_linear_561_44592)" stroke-width="0.798703"/>
<path opacity="0.171633" d="M139.888 306.035C82.3592 297.95 43.3547 236.321 52.9202 168.259C62.4857 100.197 116.966 51.7069 174.495 59.792C232.023 67.8771 271.028 129.506 261.462 197.568C251.897 265.63 197.416 314.12 139.888 306.035Z" stroke="url(#paint8_linear_561_44592)" stroke-width="0.798703"/>
<path opacity="0.191837" d="M138.725 305.397C82.235 295.437 45.7887 233.759 57.4678 167.523C69.1468 101.288 124.49 55.7953 180.98 65.756C237.471 75.7168 273.917 137.395 262.238 203.63C250.559 269.865 195.215 315.358 138.725 305.397Z" stroke="url(#paint9_linear_561_44592)" stroke-width="0.798703"/>
<path opacity="0.212041" d="M137.773 304.645C82.381 292.871 48.4483 231.245 62.1254 166.9C75.8024 102.554 131.867 60.0583 187.259 71.8322C242.651 83.6062 276.584 145.232 262.907 209.577C249.229 273.922 193.165 316.419 137.773 304.645Z" stroke="url(#paint10_linear_561_44592)" stroke-width="0.798703"/>
<path opacity="0.232245" d="M137.032 303.79C82.7946 290.267 51.3274 228.793 66.8851 166.394C82.4428 103.996 139.087 64.4903 193.324 78.0132C247.562 91.536 279.029 153.01 263.471 215.409C247.914 277.807 191.269 317.313 137.032 303.79Z" stroke="url(#paint11_linear_561_44592)" stroke-width="0.798703"/>
<path opacity="0.252449" d="M136.505 302.844C83.4764 287.638 54.4225 226.41 71.742 166.01C89.0615 105.61 146.146 69.0816 199.175 84.2874C252.204 99.4932 281.258 160.721 263.939 221.121C246.619 281.522 189.534 318.05 136.505 302.844Z" stroke="url(#paint12_linear_561_44592)" stroke-width="0.798703"/>
<path opacity="0.272653" d="M136.196 301.813C84.4256 284.992 57.7294 224.103 76.6907 165.746C95.652 107.389 153.04 73.8201 204.81 90.6412C256.58 107.462 283.276 168.352 264.315 226.709C245.354 285.066 187.966 318.634 136.196 301.813Z" stroke="url(#paint13_linear_561_44592)" stroke-width="0.798703"/>
<path opacity="0.292857" d="M136.105 300.712C85.6406 282.344 61.243 221.882 81.725 165.608C102.207 109.334 159.761 78.6991 210.226 97.0665C260.69 115.434 285.088 175.897 264.605 232.171C244.123 288.445 186.569 319.079 136.105 300.712Z" stroke="url(#paint14_linear_561_44592)" stroke-width="0.798703"/>
<path opacity="0.313061" d="M136.233 299.551C87.1184 279.708 64.9571 219.756 86.8382 165.599C108.719 111.441 166.307 83.7105 215.421 103.554C264.536 123.398 286.697 183.349 264.816 237.507C242.935 291.664 185.347 319.395 136.233 299.551Z" stroke="url(#paint15_linear_561_44592)" stroke-width="0.798703"/>
<path opacity="0.333265" d="M136.583 298.339C88.8592 277.091 68.8689 217.732 92.0268 165.718C115.185 113.705 172.674 88.8409 220.398 110.089C268.122 131.337 288.112 190.697 264.954 242.71C241.796 294.724 184.308 319.587 136.583 298.339Z" stroke="url(#paint16_linear_561_44592)" stroke-width="0.798703"/>
<path opacity="0.353469" d="M137.153 297.088C90.856 274.507 72.9686 215.816 97.281 165.969C121.593 116.121 178.855 94.0826 225.152 116.663C271.448 139.243 289.336 197.934 265.023 247.782C240.711 297.63 183.449 319.668 137.153 297.088Z" stroke="url(#paint17_linear_561_44592)" stroke-width="0.798703"/>
<path opacity="0.373673" d="M137.944 295.809C93.1087 271.969 77.2534 214.02 102.598 166.354C127.943 118.687 184.851 99.4271 229.686 123.266C274.521 147.106 290.377 205.055 265.032 252.721C239.687 300.388 182.779 319.648 137.944 295.809Z" stroke="url(#paint18_linear_561_44592)" stroke-width="0.798703"/>
<path opacity="0.393878" d="M138.954 294.512C95.6105 269.488 81.714 212.349 107.969 166.874C134.224 121.399 190.656 104.864 234 129.888C277.343 154.912 291.239 212.051 264.984 257.527C238.729 303.002 182.297 319.536 138.954 294.512Z" stroke="url(#paint19_linear_561_44592)" stroke-width="0.798703"/>
<path opacity="0.414082" d="M140.184 293.208C98.3594 267.074 86.3462 210.81 113.39 167.53C140.435 124.25 196.271 110.383 238.095 136.517C279.92 162.652 291.933 218.916 264.889 262.196C237.844 305.476 182.008 319.343 140.184 293.208Z" stroke="url(#paint20_linear_561_44592)" stroke-width="0.798703"/>
<path opacity="0.434286" d="M141.63 291.908C101.348 264.737 91.1411 209.408 118.854 168.322C146.567 127.236 201.691 115.973 241.973 143.143C282.255 170.314 292.462 225.643 264.749 266.729C237.036 307.815 181.912 319.078 141.63 291.908Z" stroke="url(#paint21_linear_561_44592)" stroke-width="0.798703"/>
<path opacity="0.45449" d="M143.293 290.62C104.574 262.489 96.093 208.151 124.355 169.251C152.618 130.351 206.917 121.625 245.636 149.756C284.355 177.887 292.836 232.225 264.573 271.125C236.311 310.025 182.011 318.75 143.293 290.62Z" stroke="url(#paint22_linear_561_44592)" stroke-width="0.798703"/>
<path opacity="0.474694" d="M145.168 289.354C108.029 260.338 101.194 207.042 129.888 170.315C158.582 133.589 211.948 127.327 249.087 156.343C286.225 185.359 293.061 238.655 264.367 275.382C235.673 312.108 182.306 318.369 145.168 289.354Z" stroke="url(#paint23_linear_561_44592)" stroke-width="0.798703"/>
<path opacity="0.494898" d="M147.251 288.125C111.706 258.3 106.434 206.093 135.443 171.521C164.453 136.95 216.781 133.076 252.326 162.902C287.871 192.727 293.143 244.934 264.134 279.506C235.125 314.078 182.796 317.951 147.251 288.125Z" stroke="url(#paint24_linear_561_44592)" stroke-width="0.798703"/>
<path opacity="0.515102" d="M149.542 286.935C115.602 256.375 111.809 205.3 141.019 172.859C170.229 140.418 221.42 138.851 255.361 169.412C289.302 199.972 293.094 251.047 263.884 283.488C234.674 315.928 183.483 317.495 149.542 286.935Z" stroke="url(#paint25_linear_561_44592)" stroke-width="0.798703"/>
<path opacity="0.535306" d="M152.035 285.801C119.705 254.58 117.308 204.676 146.606 174.337C175.905 143.998 225.862 144.652 258.192 175.872C290.521 207.093 292.919 256.997 263.621 287.336C234.322 317.676 184.365 317.021 152.035 285.801Z" stroke="url(#paint26_linear_561_44592)" stroke-width="0.798703"/>
<path opacity="0.55551" d="M154.727 284.728C124.012 252.922 122.924 204.222 152.201 175.95C181.478 147.678 230.11 150.464 260.825 182.271C291.54 214.077 292.628 262.777 263.351 291.049C234.074 319.321 185.442 316.535 154.727 284.728Z" stroke="url(#paint27_linear_561_44592)" stroke-width="0.798703"/>
<path opacity="0.575714" d="M157.612 283.725C128.513 251.407 128.649 203.94 157.797 177.695C186.944 151.451 234.165 156.277 263.265 188.595C292.364 220.914 292.228 268.381 263.081 294.625C233.933 320.87 186.712 316.043 157.612 283.725Z" stroke="url(#paint28_linear_561_44592)" stroke-width="0.798703"/>
<path opacity="0.595918" d="M160.686 282.804C133.199 250.047 134.472 203.838 163.386 179.576C192.3 155.315 238.028 162.085 265.514 194.842C293.001 227.599 291.728 273.808 262.814 298.069C233.9 322.331 188.172 315.561 160.686 282.804Z" stroke="url(#paint29_linear_561_44592)" stroke-width="0.798703"/>
<path opacity="0.616122" d="M163.944 281.975C138.064 248.851 140.389 203.92 168.967 181.593C197.545 159.265 241.703 167.879 267.583 201.003C293.462 234.127 291.137 279.058 262.559 301.386C233.981 323.713 189.823 315.099 163.944 281.975Z" stroke="url(#paint30_linear_561_44592)" stroke-width="0.798703"/>
<path opacity="0.636327" d="M167.379 281.238C143.098 247.818 146.387 204.182 174.531 183.734C202.675 163.286 245.192 173.643 269.473 207.063C293.754 240.483 290.465 284.119 262.321 304.567C234.177 325.015 191.66 314.658 167.379 281.238Z" stroke="url(#paint31_linear_561_44592)" stroke-width="0.798703"/>
<path opacity="0.656531" d="M170.984 280.608C148.289 246.962 152.457 204.631 180.071 186.005C207.686 167.379 248.496 179.372 271.19 213.018C293.884 246.664 289.717 288.995 262.102 307.621C234.488 326.247 193.678 314.254 170.984 280.608Z" stroke="url(#paint32_linear_561_44592)" stroke-width="0.798703"/>
<path opacity="0.676735" d="M174.756 280.091C153.633 246.288 158.594 205.27 185.587 188.403C212.58 171.535 251.621 185.058 272.744 218.861C293.866 252.664 288.906 293.682 261.913 310.549C234.919 327.417 195.878 313.894 174.756 280.091Z" stroke="url(#paint33_linear_561_44592)" stroke-width="0.798703"/>
<path opacity="0.696939" d="M178.685 279.69C159.117 245.797 164.785 206.094 191.069 190.919C217.354 175.744 254.571 190.686 274.139 224.579C293.707 258.472 288.039 298.174 261.755 313.35C235.471 328.525 198.253 313.582 178.685 279.69Z" stroke="url(#paint34_linear_561_44592)" stroke-width="0.798703"/>
<path opacity="0.717143" d="M182.767 279.422C173.761 262.484 170.816 244.398 173.319 228.856C175.822 213.315 183.765 200.343 196.516 193.563C209.267 186.783 224.463 187.452 238.747 194.068C253.031 200.684 266.379 213.239 275.385 230.176C284.39 247.113 287.335 265.2 284.832 280.742C282.329 296.283 274.386 309.255 261.635 316.035C248.884 322.815 233.688 322.145 219.404 315.53C205.12 308.914 191.772 296.359 182.767 279.422Z" stroke="url(#paint35_linear_561_44592)" stroke-width="0.798703"/>
<path opacity="0.737347" d="M186.99 279.285C178.741 262.371 176.308 244.62 179.026 229.602C181.744 214.584 189.604 202.328 201.918 196.322C214.232 190.316 228.729 191.668 242.237 198.772C255.745 205.876 268.235 218.722 276.485 235.636C284.734 252.549 287.167 270.3 284.449 285.318C281.73 300.337 273.871 312.593 261.557 318.599C249.243 324.605 234.746 323.253 221.238 316.148C207.73 309.044 195.24 296.199 186.99 279.285Z" stroke="url(#paint36_linear_561_44592)" stroke-width="0.798703"/>
<path opacity="0.757551" d="M191.349 279.289C183.844 262.431 181.896 245.029 184.796 230.53C187.697 216.029 195.434 204.468 207.273 199.197C219.112 193.926 232.881 195.912 245.598 203.459C258.313 211.006 269.943 224.097 277.448 240.956C284.954 257.814 286.902 275.216 284.002 289.715C281.101 304.216 273.364 315.777 261.525 321.048C249.686 326.319 235.917 324.333 223.2 316.786C210.484 309.239 198.855 296.148 191.349 279.289Z" stroke="url(#paint37_linear_561_44592)" stroke-width="0.798703"/>
<path opacity="0.777755" d="M195.837 279.44C189.061 262.668 187.571 245.626 190.621 231.639C193.671 217.65 201.249 206.76 212.577 202.183C223.904 197.607 236.92 200.177 248.832 208.121C260.742 216.063 271.508 229.357 278.285 246.129C285.061 262.901 286.551 279.943 283.501 293.93C280.451 307.919 272.873 318.809 261.546 323.386C250.218 327.963 237.202 325.393 225.29 317.449C213.38 309.506 202.614 296.212 195.837 279.44Z" stroke="url(#paint38_linear_561_44592)" stroke-width="0.798703"/>
<path opacity="0.797959" d="M200.447 279.744C194.385 263.088 193.325 246.416 196.493 232.934C199.662 219.448 207.043 209.205 217.826 205.28C228.608 201.356 240.847 204.458 251.943 212.752C263.036 221.043 272.941 234.496 279.003 251.152C285.065 267.808 286.125 284.48 282.957 297.962C279.788 311.448 272.406 321.692 261.624 325.616C250.842 329.54 238.603 326.438 227.507 318.144C216.414 309.853 206.509 296.4 200.447 279.744Z" stroke="url(#paint39_linear_561_44592)" stroke-width="0.798703"/>
<path opacity="0.818163" d="M205.164 280.206C199.8 263.695 199.143 247.402 202.398 234.415C205.654 221.422 212.805 211.799 223.011 208.483C233.216 205.167 244.658 208.749 254.929 217.347C265.196 225.94 274.242 239.507 279.606 256.018C284.971 272.53 285.628 288.822 282.373 301.809C279.117 314.802 271.966 324.426 261.76 327.742C251.555 331.058 240.113 327.475 229.841 318.878C219.574 310.284 210.529 296.717 205.164 280.206Z" stroke="url(#paint40_linear_561_44592)" stroke-width="0.798703"/>
<path opacity="0.838367" d="M209.988 280.826C205.303 264.488 205.021 248.581 208.333 236.078C211.648 223.566 218.535 214.535 228.134 211.783C237.733 209.03 248.36 213.039 257.801 221.893C267.235 230.741 275.426 244.381 280.111 260.719C284.795 277.057 285.077 292.964 281.765 305.467C278.451 317.979 271.564 327.01 261.964 329.762C252.365 332.515 241.739 328.506 232.298 319.652C222.863 310.803 214.673 297.164 209.988 280.826Z" stroke="url(#paint41_linear_561_44592)" stroke-width="0.798703"/>
<defs>
<linearGradient id="paint0_linear_561_44592" x1="251.105" y1="145.425" x2="20.6803" y2="177.809" gradientUnits="userSpaceOnUse">
<stop stop-color="#F9FBE1"/>
<stop offset="1" stop-color="white"/>
</linearGradient>
<linearGradient id="paint1_linear_561_44592" x1="252.939" y1="152.259" x2="24.1727" y2="176.303" gradientUnits="userSpaceOnUse">
<stop stop-color="#F9FBE1"/>
<stop offset="1" stop-color="white"/>
</linearGradient>
<linearGradient id="paint2_linear_561_44592" x1="254.622" y1="159.011" x2="27.8114" y2="174.871" gradientUnits="userSpaceOnUse">
<stop stop-color="#F9FBE1"/>
<stop offset="1" stop-color="white"/>
</linearGradient>
<linearGradient id="paint3_linear_561_44592" x1="256.163" y1="165.684" x2="31.5984" y2="173.526" gradientUnits="userSpaceOnUse">
<stop stop-color="#F9FBE1"/>
<stop offset="1" stop-color="white"/>
</linearGradient>
<linearGradient id="paint4_linear_561_44592" x1="257.563" y1="172.268" x2="35.523" y2="172.268" gradientUnits="userSpaceOnUse">
<stop stop-color="#F9FBE1"/>
<stop offset="1" stop-color="white"/>
</linearGradient>
<linearGradient id="paint5_linear_561_44592" x1="258.827" y1="178.756" x2="39.5837" y2="171.1" gradientUnits="userSpaceOnUse">
<stop stop-color="#F9FBE1"/>
<stop offset="1" stop-color="white"/>
</linearGradient>
<linearGradient id="paint6_linear_561_44592" x1="259.961" y1="185.151" x2="43.7741" y2="170.034" gradientUnits="userSpaceOnUse">
<stop stop-color="#F9FBE1"/>
<stop offset="1" stop-color="white"/>
</linearGradient>
<linearGradient id="paint7_linear_561_44592" x1="260.969" y1="191.439" x2="48.0891" y2="169.065" gradientUnits="userSpaceOnUse">
<stop stop-color="#F9FBE1"/>
<stop offset="1" stop-color="white"/>
</linearGradient>
<linearGradient id="paint8_linear_561_44592" x1="261.858" y1="197.623" x2="52.5248" y2="168.204" gradientUnits="userSpaceOnUse">
<stop stop-color="#F9FBE1"/>
<stop offset="1" stop-color="white"/>
</linearGradient>
<linearGradient id="paint9_linear_561_44592" x1="262.631" y1="203.699" x2="57.0745" y2="167.454" gradientUnits="userSpaceOnUse">
<stop stop-color="#F9FBE1"/>
<stop offset="1" stop-color="white"/>
</linearGradient>
<linearGradient id="paint10_linear_561_44592" x1="263.297" y1="209.66" x2="61.7347" y2="166.817" gradientUnits="userSpaceOnUse">
<stop stop-color="#F9FBE1"/>
<stop offset="1" stop-color="white"/>
</linearGradient>
<linearGradient id="paint11_linear_561_44592" x1="263.859" y1="215.505" x2="66.4976" y2="166.298" gradientUnits="userSpaceOnUse">
<stop stop-color="#F9FBE1"/>
<stop offset="1" stop-color="white"/>
</linearGradient>
<linearGradient id="paint12_linear_561_44592" x1="264.322" y1="221.231" x2="71.3581" y2="165.9" gradientUnits="userSpaceOnUse">
<stop stop-color="#F9FBE1"/>
<stop offset="1" stop-color="white"/>
</linearGradient>
<linearGradient id="paint13_linear_561_44592" x1="264.695" y1="226.832" x2="76.3109" y2="165.622" gradientUnits="userSpaceOnUse">
<stop stop-color="#F9FBE1"/>
<stop offset="1" stop-color="white"/>
</linearGradient>
<linearGradient id="paint14_linear_561_44592" x1="264.981" y1="232.307" x2="81.3497" y2="165.471" gradientUnits="userSpaceOnUse">
<stop stop-color="#F9FBE1"/>
<stop offset="1" stop-color="white"/>
</linearGradient>
<linearGradient id="paint15_linear_561_44592" x1="265.186" y1="237.656" x2="86.4679" y2="165.449" gradientUnits="userSpaceOnUse">
<stop stop-color="#F9FBE1"/>
<stop offset="1" stop-color="white"/>
</linearGradient>
<linearGradient id="paint16_linear_561_44592" x1="265.319" y1="242.873" x2="91.662" y2="165.556" gradientUnits="userSpaceOnUse">
<stop stop-color="#F9FBE1"/>
<stop offset="1" stop-color="white"/>
</linearGradient>
<linearGradient id="paint17_linear_561_44592" x1="265.382" y1="247.957" x2="96.922" y2="165.794" gradientUnits="userSpaceOnUse">
<stop stop-color="#F9FBE1"/>
<stop offset="1" stop-color="white"/>
</linearGradient>
<linearGradient id="paint18_linear_561_44592" x1="265.385" y1="252.909" x2="102.245" y2="166.166" gradientUnits="userSpaceOnUse">
<stop stop-color="#F9FBE1"/>
<stop offset="1" stop-color="white"/>
</linearGradient>
<linearGradient id="paint19_linear_561_44592" x1="265.33" y1="257.726" x2="107.623" y2="166.674" gradientUnits="userSpaceOnUse">
<stop stop-color="#F9FBE1"/>
<stop offset="1" stop-color="white"/>
</linearGradient>
<linearGradient id="paint20_linear_561_44592" x1="265.227" y1="262.408" x2="113.052" y2="167.318" gradientUnits="userSpaceOnUse">
<stop stop-color="#F9FBE1"/>
<stop offset="1" stop-color="white"/>
</linearGradient>
<linearGradient id="paint21_linear_561_44592" x1="265.08" y1="266.952" x2="118.523" y2="168.099" gradientUnits="userSpaceOnUse">
<stop stop-color="#F9FBE1"/>
<stop offset="1" stop-color="white"/>
</linearGradient>
<linearGradient id="paint22_linear_561_44592" x1="264.896" y1="271.36" x2="124.032" y2="169.016" gradientUnits="userSpaceOnUse">
<stop stop-color="#F9FBE1"/>
<stop offset="1" stop-color="white"/>
</linearGradient>
<linearGradient id="paint23_linear_561_44592" x1="264.681" y1="275.628" x2="129.573" y2="170.069" gradientUnits="userSpaceOnUse">
<stop stop-color="#F9FBE1"/>
<stop offset="1" stop-color="white"/>
</linearGradient>
<linearGradient id="paint24_linear_561_44592" x1="264.44" y1="279.762" x2="135.137" y2="171.265" gradientUnits="userSpaceOnUse">
<stop stop-color="#F9FBE1"/>
<stop offset="1" stop-color="white"/>
</linearGradient>
<linearGradient id="paint25_linear_561_44592" x1="264.181" y1="283.755" x2="140.722" y2="172.592" gradientUnits="userSpaceOnUse">
<stop stop-color="#F9FBE1"/>
<stop offset="1" stop-color="white"/>
</linearGradient>
<linearGradient id="paint26_linear_561_44592" x1="263.908" y1="287.614" x2="146.319" y2="174.059" gradientUnits="userSpaceOnUse">
<stop stop-color="#F9FBE1"/>
<stop offset="1" stop-color="white"/>
</linearGradient>
<linearGradient id="paint27_linear_561_44592" x1="263.628" y1="291.336" x2="151.924" y2="175.663" gradientUnits="userSpaceOnUse">
<stop stop-color="#F9FBE1"/>
<stop offset="1" stop-color="white"/>
</linearGradient>
<linearGradient id="paint28_linear_561_44592" x1="263.348" y1="294.922" x2="157.529" y2="177.399" gradientUnits="userSpaceOnUse">
<stop stop-color="#F9FBE1"/>
<stop offset="1" stop-color="white"/>
</linearGradient>
<linearGradient id="paint29_linear_561_44592" x1="263.071" y1="298.375" x2="163.129" y2="179.27" gradientUnits="userSpaceOnUse">
<stop stop-color="#F9FBE1"/>
<stop offset="1" stop-color="white"/>
</linearGradient>
<linearGradient id="paint30_linear_561_44592" x1="262.805" y1="301.7" x2="168.721" y2="181.278" gradientUnits="userSpaceOnUse">
<stop stop-color="#F9FBE1"/>
<stop offset="1" stop-color="white"/>
</linearGradient>
<linearGradient id="paint31_linear_561_44592" x1="262.556" y1="304.89" x2="174.296" y2="183.411" gradientUnits="userSpaceOnUse">
<stop stop-color="#F9FBE1"/>
<stop offset="1" stop-color="white"/>
</linearGradient>
<linearGradient id="paint32_linear_561_44592" x1="262.326" y1="307.952" x2="179.848" y2="185.674" gradientUnits="userSpaceOnUse">
<stop stop-color="#F9FBE1"/>
<stop offset="1" stop-color="white"/>
</linearGradient>
<linearGradient id="paint33_linear_561_44592" x1="262.124" y1="310.888" x2="185.375" y2="188.064" gradientUnits="userSpaceOnUse">
<stop stop-color="#F9FBE1"/>
<stop offset="1" stop-color="white"/>
</linearGradient>
<linearGradient id="paint34_linear_561_44592" x1="261.954" y1="313.695" x2="190.87" y2="190.573" gradientUnits="userSpaceOnUse">
<stop stop-color="#F9FBE1"/>
<stop offset="1" stop-color="white"/>
</linearGradient>
<linearGradient id="paint35_linear_561_44592" x1="261.823" y1="316.388" x2="196.328" y2="193.21" gradientUnits="userSpaceOnUse">
<stop stop-color="#F9FBE1"/>
<stop offset="1" stop-color="white"/>
</linearGradient>
<linearGradient id="paint36_linear_561_44592" x1="261.732" y1="318.958" x2="201.743" y2="195.963" gradientUnits="userSpaceOnUse">
<stop stop-color="#F9FBE1"/>
<stop offset="1" stop-color="white"/>
</linearGradient>
<linearGradient id="paint37_linear_561_44592" x1="261.687" y1="321.413" x2="207.11" y2="198.832" gradientUnits="userSpaceOnUse">
<stop stop-color="#F9FBE1"/>
<stop offset="1" stop-color="white"/>
</linearGradient>
<linearGradient id="paint38_linear_561_44592" x1="261.695" y1="323.756" x2="212.427" y2="201.813" gradientUnits="userSpaceOnUse">
<stop stop-color="#F9FBE1"/>
<stop offset="1" stop-color="white"/>
</linearGradient>
<linearGradient id="paint39_linear_561_44592" x1="261.761" y1="325.991" x2="217.689" y2="204.905" gradientUnits="userSpaceOnUse">
<stop stop-color="#F9FBE1"/>
<stop offset="1" stop-color="white"/>
</linearGradient>
<linearGradient id="paint40_linear_561_44592" x1="261.884" y1="328.122" x2="222.887" y2="208.103" gradientUnits="userSpaceOnUse">
<stop stop-color="#F9FBE1"/>
<stop offset="1" stop-color="white"/>
</linearGradient>
<linearGradient id="paint41_linear_561_44592" x1="262.074" y1="330.146" x2="228.024" y2="211.399" gradientUnits="userSpaceOnUse">
<stop stop-color="#F9FBE1"/>
<stop offset="1" stop-color="white"/>
</linearGradient>
</defs>
</svg>
