<svg width="200" height="231" viewBox="0 0 200 231" fill="none" xmlns="http://www.w3.org/2000/svg">
<path opacity="0.01" d="M44.1971 -74.1413C107.53 -83.0421 168.076 -25.8 179.282 53.9352C190.488 133.67 148.065 205.384 84.7328 214.285C21.4004 223.185 -39.1457 165.943 -50.3518 86.2081C-61.5578 6.47289 -19.1353 -65.2405 44.1971 -74.1413Z" stroke="url(#paint0_linear_561_44541)" stroke-width="0.798703"/>
<path opacity="0.0302041" d="M46.8573 -74.7769C109.733 -81.3854 167.525 -23.1853 175.788 55.4273C184.05 134.04 139.621 202.984 76.7457 209.592C13.8702 216.201 -43.922 158.001 -52.1845 79.3881C-60.447 0.775575 -16.0182 -68.1684 46.8573 -74.7769Z" stroke="url(#paint1_linear_561_44541)" stroke-width="0.798703"/>
<path opacity="0.0504082" d="M49.3536 -75.2159C111.69 -79.5749 166.736 -20.5377 172.148 56.8457C177.559 134.229 131.265 200.353 68.9281 204.712C6.59131 209.071 -48.4547 150.033 -53.8659 72.6501C-59.2771 -4.73333 -12.9831 -70.8569 49.3536 -75.2159Z" stroke="url(#paint2_linear_561_44541)" stroke-width="0.798703"/>
<path opacity="0.0706122" d="M51.6729 -75.4759C113.391 -77.6311 165.704 -17.8763 168.36 58.1764C171.016 134.229 122.999 197.488 61.2802 199.643C-0.438343 201.798 -52.751 142.043 -55.4068 65.9905C-58.0626 -10.0622 -10.0457 -73.3206 51.6729 -75.4759Z" stroke="url(#paint3_linear_561_44541)" stroke-width="0.798703"/>
<path opacity="0.0908163" d="M53.8147 -75.5602C114.838 -75.5602 164.435 -15.205 164.435 59.4206C164.435 134.046 114.838 194.401 53.8147 194.401C-7.20886 194.401 -56.8057 134.046 -56.8057 59.4206C-56.8057 -15.205 -7.20886 -75.5602 53.8147 -75.5602Z" stroke="url(#paint4_linear_561_44541)" stroke-width="0.798703"/>
<path opacity="0.11102" d="M55.7698 -75.4775C116.024 -73.3733 162.928 -12.5329 160.375 60.5746C157.822 133.682 106.788 191.102 46.5341 188.998C-13.7201 186.894 -60.6236 126.054 -58.0707 52.9463C-55.5177 -20.1612 -4.48438 -77.5816 55.7698 -75.4775Z" stroke="url(#paint5_linear_561_44541)" stroke-width="0.798703"/>
<path opacity="0.131224" d="M57.5342 -75.244C116.948 -71.0894 161.185 -9.87679 156.185 61.6271C151.185 133.131 98.8589 187.591 39.4455 183.437C-19.9678 179.282 -64.2052 118.069 -59.2052 46.5655C-54.2052 -24.9383 -1.87912 -79.3986 57.5342 -75.244Z" stroke="url(#paint6_linear_561_44541)" stroke-width="0.798703"/>
<path opacity="0.151429" d="M59.1029 -74.8618C117.607 -68.7128 159.21 -7.23826 151.871 62.5819C144.533 132.402 91.0577 183.883 32.5539 177.734C-25.9499 171.585 -67.5528 110.111 -60.2144 40.2908C-52.876 -29.5293 0.599074 -81.0108 59.1029 -74.8618Z" stroke="url(#paint7_linear_561_44541)" stroke-width="0.798703"/>
<path opacity="0.171633" d="M60.4698 -74.3465C117.998 -66.2614 157.003 -4.6327 147.437 63.4293C137.872 131.491 83.391 179.982 25.8626 171.896C-31.6658 163.811 -70.6702 102.183 -61.1047 34.1207C-51.5392 -33.9414 2.94143 -82.4316 60.4698 -74.3465Z" stroke="url(#paint8_linear_561_44541)" stroke-width="0.798703"/>
<path opacity="0.191837" d="M61.6322 -73.7089C118.122 -63.7482 154.569 -2.07019 142.89 64.165C131.211 130.4 75.8672 175.893 19.377 165.932C-37.1132 155.972 -73.5595 94.2937 -61.8805 28.0585C-50.2014 -38.1767 5.14207 -83.6697 61.6322 -73.7089Z" stroke="url(#paint9_linear_561_44541)" stroke-width="0.798703"/>
<path opacity="0.212041" d="M62.5844 -72.9561C117.976 -61.1822 151.909 0.443334 138.232 64.7888C124.555 129.134 68.4907 171.63 13.0986 159.856C-42.2935 148.082 -76.2261 86.4568 -62.5491 22.1114C-48.872 -42.234 7.1923 -84.7301 62.5844 -72.9561Z" stroke="url(#paint10_linear_561_44541)" stroke-width="0.798703"/>
<path opacity="0.232245" d="M63.3256 -72.1017C117.563 -58.5788 149.03 2.89554 133.472 65.294C117.915 127.693 61.2703 167.198 7.03303 153.675C-47.2043 140.152 -78.6715 78.6781 -63.1138 16.2796C-47.5561 -46.1189 9.08826 -85.6245 63.3256 -72.1017Z" stroke="url(#paint11_linear_561_44541)" stroke-width="0.798703"/>
<path opacity="0.252449" d="M63.8522 -71.1554C116.881 -55.9496 145.935 5.27824 128.615 65.6786C111.296 126.079 54.211 162.607 1.1821 147.401C-51.8468 132.195 -80.9007 70.9675 -63.5812 10.5671C-46.2616 -49.8333 10.8232 -86.3612 63.8522 -71.1554Z" stroke="url(#paint12_linear_561_44541)" stroke-width="0.798703"/>
<path opacity="0.272653" d="M64.1617 -70.1248C115.932 -53.3037 142.628 7.58574 123.667 65.9426C104.705 124.299 47.3178 157.868 -4.45231 141.047C-56.2225 124.226 -82.9187 63.3367 -63.9574 4.97982C-44.9961 -53.377 12.3915 -86.946 64.1617 -70.1248Z" stroke="url(#paint13_linear_561_44541)" stroke-width="0.798703"/>
<path opacity="0.292857" d="M64.2526 -69.0233C114.717 -50.6559 139.114 9.80691 118.632 66.0808C98.1504 122.355 40.596 152.989 -9.86823 134.622C-60.3325 116.254 -84.7301 55.7917 -64.248 -0.482222C-43.766 -56.7561 13.7884 -87.3908 64.2526 -69.0233Z" stroke="url(#paint14_linear_561_44541)" stroke-width="0.798703"/>
<path opacity="0.313061" d="M64.1245 -67.863C113.239 -48.0194 135.4 11.9321 113.519 66.0896C91.6382 120.247 34.0509 147.978 -15.0636 128.134C-64.1781 108.291 -86.3394 48.3394 -64.4583 -5.81805C-42.5773 -59.9755 15.01 -87.7065 64.1245 -67.863Z" stroke="url(#paint15_linear_561_44541)" stroke-width="0.798703"/>
<path opacity="0.333265" d="M63.7741 -66.6507C111.498 -45.4025 131.488 13.957 108.331 65.9705C85.1727 117.984 27.6839 142.848 -20.0403 121.599C-67.7644 100.351 -87.7547 40.9917 -64.5968 -11.0218C-41.4389 -63.0353 16.0499 -87.8989 63.7741 -66.6507Z" stroke="url(#paint16_linear_561_44541)" stroke-width="0.798703"/>
<path opacity="0.353469" d="M63.2048 -65.399C109.501 -42.8187 127.389 15.8721 103.076 65.7199C78.764 115.568 21.5025 137.606 -24.7941 115.026C-71.0908 92.4452 -88.9782 33.7544 -64.6658 -16.0934C-40.3533 -65.9413 16.9082 -87.9794 63.2048 -65.399Z" stroke="url(#paint17_linear_561_44541)" stroke-width="0.798703"/>
<path opacity="0.373673" d="M62.4135 -64.1201C107.249 -40.2807 123.104 17.6684 97.7594 65.3349C72.4146 113.001 15.5064 132.261 -29.3288 108.422C-74.1641 84.5827 -90.0194 26.6336 -64.6747 -21.0329C-39.33 -68.6993 17.5782 -87.9594 62.4135 -64.1201Z" stroke="url(#paint18_linear_561_44541)" stroke-width="0.798703"/>
<path opacity="0.393878" d="M61.4035 -62.8236C104.747 -37.7993 118.643 19.3396 92.3883 64.8148C66.1332 110.29 9.70122 126.825 -33.6422 101.8C-76.9855 76.776 -90.8821 19.6372 -64.627 -25.838C-38.3718 -71.3132 18.0601 -87.8479 61.4035 -62.8236Z" stroke="url(#paint19_linear_561_44541)" stroke-width="0.798703"/>
<path opacity="0.414082" d="M60.1736 -61.52C101.998 -35.3852 114.011 20.879 86.967 64.1588C59.9227 107.439 4.08665 121.306 -37.7378 95.1711C-79.5622 69.0363 -91.5753 12.7721 -64.5311 -30.5077C-37.4869 -73.7875 18.3492 -87.6548 60.1736 -61.52Z" stroke="url(#paint20_linear_561_44541)" stroke-width="0.798703"/>
<path opacity="0.434286" d="M58.7273 -60.219C99.009 -33.0487 109.216 22.2805 81.5033 63.3667C53.7904 104.453 -1.33368 115.715 -41.6154 88.5451C-81.8971 61.3747 -92.1044 6.04555 -64.3915 -35.0406C-36.6785 -76.1268 18.4456 -87.3894 58.7273 -60.219Z" stroke="url(#paint21_linear_561_44541)" stroke-width="0.798703"/>
<path opacity="0.45449" d="M57.0649 -58.9312C95.7836 -30.8004 104.264 23.5379 76.002 62.4378C47.7396 101.338 -6.56001 110.063 -45.2787 81.9327C-83.9973 53.8019 -92.4781 -0.536414 -64.2157 -39.4363C-35.9533 -78.3362 18.3463 -87.0619 57.0649 -58.9312Z" stroke="url(#paint22_linear_561_44541)" stroke-width="0.798703"/>
<path opacity="0.474694" d="M55.1898 -57.6651C92.3284 -28.6493 99.1637 24.6467 70.4698 61.3733C41.7758 98.0999 -11.5907 104.361 -48.7293 75.3453C-85.8678 46.3294 -92.7031 -6.96659 -64.0092 -43.6932C-35.3152 -80.4197 18.0512 -86.681 55.1898 -57.6651Z" stroke="url(#paint23_linear_561_44541)" stroke-width="0.798703"/>
<path opacity="0.494898" d="M53.1062 -56.437C88.6511 -26.6113 93.9232 25.5953 64.914 60.1671C35.9049 94.7389 -16.4241 98.6124 -51.9689 68.7867C-87.5138 38.961 -92.7859 -13.2455 -63.7768 -47.8173C-34.7676 -82.3891 17.5613 -86.2626 53.1062 -56.437Z" stroke="url(#paint24_linear_561_44541)" stroke-width="0.798703"/>
<path opacity="0.515102" d="M50.8151 -55.2465C84.7559 -24.686 88.5484 26.3885 59.3385 58.8294C30.1286 91.2703 -21.0625 92.8373 -55.0034 62.2768C-88.9442 31.7164 -92.7367 -19.3581 -63.5268 -51.799C-34.3168 -84.2399 16.8743 -85.8069 50.8151 -55.2465Z" stroke="url(#paint25_linear_561_44541)" stroke-width="0.798703"/>
<path opacity="0.535306" d="M48.3223 -54.1124C80.652 -22.8919 83.0496 27.0123 53.7512 57.3516C24.4528 87.691 -25.5046 87.0365 -57.8344 55.8161C-90.1641 24.5956 -92.5616 -25.3086 -63.2632 -55.6479C-33.9649 -85.9873 15.9926 -85.3328 48.3223 -54.1124Z" stroke="url(#paint26_linear_561_44541)" stroke-width="0.798703"/>
<path opacity="0.55551" d="M45.6305 -53.0399C76.3453 -21.2338 77.4332 27.4664 48.1565 55.7386C18.8797 84.0109 -29.7528 81.224 -60.4677 49.4179C-91.1825 17.6118 -92.2704 -31.0884 -62.9936 -59.3607C-33.7169 -87.6329 14.9157 -84.8461 45.6305 -53.0399Z" stroke="url(#paint27_linear_561_44541)" stroke-width="0.798703"/>
<path opacity="0.575714" d="M42.745 -52.0367C71.8444 -19.7185 71.7085 27.7485 42.5609 53.9931C13.4133 80.2377 -33.8079 75.4112 -62.9073 43.0931C-92.0067 10.7749 -91.8708 -36.6921 -62.7231 -62.9367C-33.5755 -89.1813 13.6456 -84.3548 42.745 -52.0367Z" stroke="url(#paint28_linear_561_44541)" stroke-width="0.798703"/>
<path opacity="0.595918" d="M39.6719 -51.1152C67.1584 -18.3581 65.885 27.851 36.9713 52.1125C8.05755 76.374 -37.6706 69.6039 -65.1571 36.8467C-92.6436 4.08955 -91.3702 -42.1195 -62.4565 -66.381C-33.5428 -90.6425 12.1853 -83.8724 39.6719 -51.1152Z" stroke="url(#paint29_linear_561_44541)" stroke-width="0.798703"/>
<path opacity="0.616122" d="M36.4139 -50.2865C62.2933 -17.1624 59.9689 27.7683 31.3908 50.096C2.81269 72.4236 -41.3457 63.8093 -67.2251 30.6852C-93.1045 -2.43889 -90.7801 -47.3696 -62.202 -69.6973C-33.6239 -92.0249 10.5345 -83.4106 36.4139 -50.2865Z" stroke="url(#paint30_linear_561_44541)" stroke-width="0.798703"/>
<path opacity="0.636327" d="M32.9785 -49.5498C57.2595 -16.1299 53.9704 27.5067 25.8266 47.9544C-2.31728 68.4021 -44.8345 58.0457 -69.1155 24.6258C-93.3965 -8.79408 -90.1074 -52.4307 -61.9636 -72.8784C-33.8197 -93.3261 8.69751 -82.9697 32.9785 -49.5498Z" stroke="url(#paint31_linear_561_44541)" stroke-width="0.798703"/>
<path opacity="0.656531" d="M29.3736 -48.9193C52.068 -15.2736 47.9004 27.0574 20.286 45.6835C-7.32839 64.3096 -48.1382 52.3163 -70.8325 18.6705C-93.5269 -14.9752 -89.3593 -57.3062 -61.7449 -75.9323C-34.1305 -94.5584 6.67926 -82.5651 29.3736 -48.9193Z" stroke="url(#paint32_linear_561_44541)" stroke-width="0.798703"/>
<path opacity="0.676735" d="M25.6019 -48.4025C46.7243 -14.5996 41.7639 26.4185 14.7706 43.2858C-12.2226 60.1531 -51.264 46.6303 -72.3864 12.8274C-93.5088 -20.9755 -88.5484 -61.9937 -61.5552 -78.861C-34.5619 -95.7282 4.47949 -82.2054 25.6019 -48.4025Z" stroke="url(#paint33_linear_561_44541)" stroke-width="0.798703"/>
<path opacity="0.696939" d="M21.6724 -48.0011C41.2404 -14.1084 35.5721 25.5942 9.28793 40.7694C-16.9963 55.9445 -54.2138 41.0021 -73.7818 7.10942C-93.3498 -26.7833 -87.6815 -66.4858 -61.3973 -81.661C-35.1131 -96.8362 2.10445 -81.8938 21.6724 -48.0011Z" stroke="url(#paint34_linear_561_44541)" stroke-width="0.798703"/>
<path opacity="0.717143" d="M17.5909 -47.7334C26.5967 -30.7959 29.5411 -12.7094 27.0381 2.83213C24.5353 18.3734 16.5925 31.3457 3.84164 38.1255C-8.90927 44.9053 -24.1054 44.236 -38.3892 37.6205C-52.6734 31.0048 -66.0213 18.4499 -75.0271 1.51245C-84.0329 -15.425 -86.9773 -33.5116 -84.4744 -49.0531C-81.9715 -64.5943 -74.0288 -77.5667 -61.2779 -84.3465C-48.527 -91.1263 -33.3309 -90.457 -19.047 -83.8414C-4.76287 -77.2257 8.58506 -64.6709 17.5909 -47.7334Z" stroke="url(#paint35_linear_561_44541)" stroke-width="0.798703"/>
<path opacity="0.737347" d="M13.3672 -47.5964C21.6166 -30.6827 24.0491 -12.9318 21.3311 2.08625C18.613 17.1046 10.7532 29.3609 -1.56072 35.3668C-13.8747 41.3727 -28.3717 40.0205 -41.8798 32.9162C-55.3875 25.8121 -67.8778 12.9667 -76.1272 -3.9471C-84.3766 -20.8609 -86.8091 -38.6117 -84.0911 -53.6298C-81.373 -68.6481 -73.5132 -80.9044 -61.1993 -86.9103C-48.8853 -92.9162 -34.3883 -91.5641 -20.8802 -84.4598C-7.37245 -77.3556 5.11782 -64.5102 13.3672 -47.5964Z" stroke="url(#paint36_linear_561_44541)" stroke-width="0.798703"/>
<path opacity="0.757551" d="M9.00796 -47.6009C16.5138 -30.7425 18.4614 -13.3403 15.5613 1.15885C12.6609 15.6592 4.92323 27.2209 -6.91552 32.4919C-18.7543 37.7628 -32.5238 35.7767 -45.2404 28.2295C-57.9559 20.6829 -69.5851 7.59116 -77.0909 -9.2672C-84.5967 -26.1256 -86.5444 -43.5278 -83.6442 -58.027C-80.7438 -72.5273 -73.0062 -84.089 -61.1674 -89.36C-49.3287 -94.6309 -35.5592 -92.6448 -22.8426 -85.0976C-10.127 -77.551 1.50214 -64.4593 9.00796 -47.6009Z" stroke="url(#paint37_linear_561_44541)" stroke-width="0.798703"/>
<path opacity="0.777755" d="M4.52002 -47.7517C11.2964 -30.9795 12.7864 -13.9375 9.73647 0.0491017C6.68605 14.0381 -0.891653 24.9284 -12.2191 29.505C-23.5466 34.0816 -36.5626 31.5117 -48.4745 23.5678C-60.3843 15.6254 -71.1509 2.33138 -77.9273 -14.4408C-84.7037 -31.213 -86.1936 -48.2549 -83.1437 -62.2416C-80.0933 -76.2305 -72.5156 -87.1209 -61.1881 -91.6975C-49.8606 -96.2741 -36.8446 -93.7041 -24.9328 -85.7603C-13.023 -77.8178 -2.25637 -64.5238 4.52002 -47.7517Z" stroke="url(#paint38_linear_561_44541)" stroke-width="0.798703"/>
<path opacity="0.797959" d="M-0.0894083 -48.0556C5.97292 -31.3995 7.03259 -14.7278 3.86467 -1.24579C0.695799 12.2402 -6.68578 22.4839 -17.4681 26.4084C-28.2504 30.3328 -40.4896 27.2305 -51.5857 18.9365C-62.6785 10.645 -72.5831 -2.8074 -78.6455 -19.4635C-84.7078 -36.1196 -85.7674 -52.7913 -82.5995 -66.2733C-79.4307 -79.7593 -72.0491 -90.003 -61.2668 -93.9275C-50.4845 -97.8519 -38.2453 -94.7496 -27.1492 -86.4556C-16.0563 -78.1641 -6.15174 -64.7117 -0.0894083 -48.0556Z" stroke="url(#paint39_linear_561_44541)" stroke-width="0.798703"/>
<path opacity="0.818163" d="M-4.80697 -48.5176C0.557821 -32.0064 1.21475 -15.7136 -2.04023 -2.7267C-5.2968 10.2665 -12.4477 19.8899 -22.6531 23.2058C-32.8586 26.5217 -44.3002 22.9395 -54.5721 14.3419C-64.8389 5.74853 -73.8841 -7.81875 -79.2489 -24.3299C-84.6137 -40.841 -85.2707 -57.1338 -82.0157 -70.1207C-78.7591 -83.114 -71.6082 -92.7373 -61.4028 -96.0533C-51.1973 -99.3692 -39.7557 -95.7869 -29.4838 -87.1894C-19.217 -78.596 -10.1718 -65.0287 -4.80697 -48.5176Z" stroke="url(#paint40_linear_561_44541)" stroke-width="0.798703"/>
<path opacity="0.838367" d="M-9.63078 -49.1376C-4.94585 -32.7993 -4.66403 -16.8925 -7.97597 -4.38957C-11.2904 8.12268 -18.1778 17.1533 -27.7769 19.9058C-37.376 22.6583 -48.0024 18.6497 -57.4436 9.79504C-66.8778 0.947 -75.0682 -12.6921 -79.7531 -29.0304C-84.438 -45.3687 -84.7199 -61.2755 -81.4079 -73.7784C-78.0935 -86.2907 -71.2061 -95.3213 -61.607 -98.0738C-52.0079 -100.826 -41.3815 -96.8177 -31.9403 -87.963C-22.506 -79.115 -14.3157 -65.4759 -9.63078 -49.1376Z" stroke="url(#paint41_linear_561_44541)" stroke-width="0.798703"/>
<path opacity="0.858571" d="M-14.547 -49.9256C-10.5232 -33.7869 -10.5889 -18.2717 -13.9286 -6.24014C-17.2719 5.80477 -23.8648 14.2714 -32.8304 16.5068C-41.796 18.7421 -51.5921 14.3617 -60.1988 5.29633C-68.7961 -3.75907 -76.138 -17.4273 -80.1618 -33.566C-84.1857 -49.7046 -84.12 -65.2198 -80.7803 -77.2514C-77.4369 -89.2963 -70.844 -97.7629 -61.8784 -99.9983C-52.9128 -102.234 -43.1168 -97.8533 -34.51 -88.7879C-25.9128 -79.7325 -18.5708 -66.0642 -14.547 -49.9256Z" stroke="url(#paint42_linear_561_44541)" stroke-width="0.798703"/>
<defs>
<linearGradient id="paint0_linear_561_44541" x1="-50.7472" y1="86.2637" x2="179.677" y2="53.8796" gradientUnits="userSpaceOnUse">
<stop stop-color="#F9FBE1"/>
<stop offset="1" stop-color="white"/>
</linearGradient>
<linearGradient id="paint1_linear_561_44541" x1="-52.5817" y1="79.4299" x2="176.185" y2="55.3856" gradientUnits="userSpaceOnUse">
<stop stop-color="#F9FBE1"/>
<stop offset="1" stop-color="white"/>
</linearGradient>
<linearGradient id="paint2_linear_561_44541" x1="-54.2643" y1="72.6779" x2="172.546" y2="56.8178" gradientUnits="userSpaceOnUse">
<stop stop-color="#F9FBE1"/>
<stop offset="1" stop-color="white"/>
</linearGradient>
<linearGradient id="paint3_linear_561_44541" x1="-55.8059" y1="66.0045" x2="168.759" y2="58.1625" gradientUnits="userSpaceOnUse">
<stop stop-color="#F9FBE1"/>
<stop offset="1" stop-color="white"/>
</linearGradient>
<linearGradient id="paint4_linear_561_44541" x1="-57.2051" y1="59.4206" x2="164.834" y2="59.4206" gradientUnits="userSpaceOnUse">
<stop stop-color="#F9FBE1"/>
<stop offset="1" stop-color="white"/>
</linearGradient>
<linearGradient id="paint5_linear_561_44541" x1="-58.4698" y1="52.9323" x2="160.774" y2="60.5885" gradientUnits="userSpaceOnUse">
<stop stop-color="#F9FBE1"/>
<stop offset="1" stop-color="white"/>
</linearGradient>
<linearGradient id="paint6_linear_561_44541" x1="-59.6036" y1="46.5377" x2="156.583" y2="61.6549" gradientUnits="userSpaceOnUse">
<stop stop-color="#F9FBE1"/>
<stop offset="1" stop-color="white"/>
</linearGradient>
<linearGradient id="paint7_linear_561_44541" x1="-60.6115" y1="40.2491" x2="152.268" y2="62.6236" gradientUnits="userSpaceOnUse">
<stop stop-color="#F9FBE1"/>
<stop offset="1" stop-color="white"/>
</linearGradient>
<linearGradient id="paint8_linear_561_44541" x1="-61.5002" y1="34.0651" x2="147.833" y2="63.4849" gradientUnits="userSpaceOnUse">
<stop stop-color="#F9FBE1"/>
<stop offset="1" stop-color="white"/>
</linearGradient>
<linearGradient id="paint9_linear_561_44541" x1="-62.2737" y1="27.9892" x2="143.283" y2="64.2344" gradientUnits="userSpaceOnUse">
<stop stop-color="#F9FBE1"/>
<stop offset="1" stop-color="white"/>
</linearGradient>
<linearGradient id="paint10_linear_561_44541" x1="-62.9397" y1="22.0284" x2="138.623" y2="64.8718" gradientUnits="userSpaceOnUse">
<stop stop-color="#F9FBE1"/>
<stop offset="1" stop-color="white"/>
</linearGradient>
<linearGradient id="paint11_linear_561_44541" x1="-63.5013" y1="16.183" x2="133.86" y2="65.3907" gradientUnits="userSpaceOnUse">
<stop stop-color="#F9FBE1"/>
<stop offset="1" stop-color="white"/>
</linearGradient>
<linearGradient id="paint12_linear_561_44541" x1="-63.9651" y1="10.457" x2="128.999" y2="65.7887" gradientUnits="userSpaceOnUse">
<stop stop-color="#F9FBE1"/>
<stop offset="1" stop-color="white"/>
</linearGradient>
<linearGradient id="paint13_linear_561_44541" x1="-64.3372" y1="4.85642" x2="124.047" y2="66.066" gradientUnits="userSpaceOnUse">
<stop stop-color="#F9FBE1"/>
<stop offset="1" stop-color="white"/>
</linearGradient>
<linearGradient id="paint14_linear_561_44541" x1="-64.6233" y1="-0.618808" x2="119.008" y2="66.2174" gradientUnits="userSpaceOnUse">
<stop stop-color="#F9FBE1"/>
<stop offset="1" stop-color="white"/>
</linearGradient>
<linearGradient id="paint15_linear_561_44541" x1="-64.8286" y1="-5.96765" x2="113.89" y2="66.2392" gradientUnits="userSpaceOnUse">
<stop stop-color="#F9FBE1"/>
<stop offset="1" stop-color="white"/>
</linearGradient>
<linearGradient id="paint16_linear_561_44541" x1="-64.9616" y1="-11.1842" x2="108.695" y2="66.1329" gradientUnits="userSpaceOnUse">
<stop stop-color="#F9FBE1"/>
<stop offset="1" stop-color="white"/>
</linearGradient>
<linearGradient id="paint17_linear_561_44541" x1="-65.0247" y1="-16.2685" x2="103.435" y2="65.895" gradientUnits="userSpaceOnUse">
<stop stop-color="#F9FBE1"/>
<stop offset="1" stop-color="white"/>
</linearGradient>
<linearGradient id="paint18_linear_561_44541" x1="-65.0273" y1="-21.2203" x2="98.112" y2="65.5223" gradientUnits="userSpaceOnUse">
<stop stop-color="#F9FBE1"/>
<stop offset="1" stop-color="white"/>
</linearGradient>
<linearGradient id="paint19_linear_561_44541" x1="-64.9728" y1="-26.0377" x2="92.7342" y2="65.0145" gradientUnits="userSpaceOnUse">
<stop stop-color="#F9FBE1"/>
<stop offset="1" stop-color="white"/>
</linearGradient>
<linearGradient id="paint20_linear_561_44541" x1="-64.8698" y1="-30.7193" x2="87.3056" y2="64.3704" gradientUnits="userSpaceOnUse">
<stop stop-color="#F9FBE1"/>
<stop offset="1" stop-color="white"/>
</linearGradient>
<linearGradient id="paint21_linear_561_44541" x1="-64.7225" y1="-35.2639" x2="81.8344" y2="63.59" gradientUnits="userSpaceOnUse">
<stop stop-color="#F9FBE1"/>
<stop offset="1" stop-color="white"/>
</linearGradient>
<linearGradient id="paint22_linear_561_44541" x1="-64.5388" y1="-39.671" x2="76.325" y2="62.6725" gradientUnits="userSpaceOnUse">
<stop stop-color="#F9FBE1"/>
<stop offset="1" stop-color="white"/>
</linearGradient>
<linearGradient id="paint23_linear_561_44541" x1="-64.3239" y1="-43.939" x2="70.7845" y2="61.6192" gradientUnits="userSpaceOnUse">
<stop stop-color="#F9FBE1"/>
<stop offset="1" stop-color="white"/>
</linearGradient>
<linearGradient id="paint24_linear_561_44541" x1="-64.0827" y1="-48.074" x2="65.22" y2="60.4238" gradientUnits="userSpaceOnUse">
<stop stop-color="#F9FBE1"/>
<stop offset="1" stop-color="white"/>
</linearGradient>
<linearGradient id="paint25_linear_561_44541" x1="-63.8236" y1="-52.0662" x2="59.6353" y2="59.0966" gradientUnits="userSpaceOnUse">
<stop stop-color="#F9FBE1"/>
<stop offset="1" stop-color="white"/>
</linearGradient>
<linearGradient id="paint26_linear_561_44541" x1="-63.5505" y1="-55.9253" x2="54.0385" y2="57.629" gradientUnits="userSpaceOnUse">
<stop stop-color="#F9FBE1"/>
<stop offset="1" stop-color="white"/>
</linearGradient>
<linearGradient id="paint27_linear_561_44541" x1="-63.2711" y1="-59.6479" x2="48.4339" y2="56.0259" gradientUnits="userSpaceOnUse">
<stop stop-color="#F9FBE1"/>
<stop offset="1" stop-color="white"/>
</linearGradient>
<linearGradient id="paint28_linear_561_44541" x1="-62.9904" y1="-63.2335" x2="42.8281" y2="54.2899" gradientUnits="userSpaceOnUse">
<stop stop-color="#F9FBE1"/>
<stop offset="1" stop-color="white"/>
</linearGradient>
<linearGradient id="paint29_linear_561_44541" x1="-62.7132" y1="-66.6869" x2="37.228" y2="52.4184" gradientUnits="userSpaceOnUse">
<stop stop-color="#F9FBE1"/>
<stop offset="1" stop-color="white"/>
</linearGradient>
<linearGradient id="paint30_linear_561_44541" x1="-62.4478" y1="-70.012" x2="31.6366" y2="50.4107" gradientUnits="userSpaceOnUse">
<stop stop-color="#F9FBE1"/>
<stop offset="1" stop-color="white"/>
</linearGradient>
<linearGradient id="paint31_linear_561_44541" x1="-62.1983" y1="-73.2014" x2="26.0613" y2="48.2775" gradientUnits="userSpaceOnUse">
<stop stop-color="#F9FBE1"/>
<stop offset="1" stop-color="white"/>
</linearGradient>
<linearGradient id="paint32_linear_561_44541" x1="-61.9682" y1="-76.2634" x2="20.5093" y2="46.0146" gradientUnits="userSpaceOnUse">
<stop stop-color="#F9FBE1"/>
<stop offset="1" stop-color="white"/>
</linearGradient>
<linearGradient id="paint33_linear_561_44541" x1="-61.7668" y1="-79.1996" x2="14.9822" y2="43.6245" gradientUnits="userSpaceOnUse">
<stop stop-color="#F9FBE1"/>
<stop offset="1" stop-color="white"/>
</linearGradient>
<linearGradient id="paint34_linear_561_44541" x1="-61.597" y1="-82.0069" x2="9.48761" y2="41.1152" gradientUnits="userSpaceOnUse">
<stop stop-color="#F9FBE1"/>
<stop offset="1" stop-color="white"/>
</linearGradient>
<linearGradient id="paint35_linear_561_44541" x1="-61.4654" y1="-84.6991" x2="4.02913" y2="38.4781" gradientUnits="userSpaceOnUse">
<stop stop-color="#F9FBE1"/>
<stop offset="1" stop-color="white"/>
</linearGradient>
<linearGradient id="paint36_linear_561_44541" x1="-61.3743" y1="-87.2693" x2="-1.38566" y2="35.7257" gradientUnits="userSpaceOnUse">
<stop stop-color="#F9FBE1"/>
<stop offset="1" stop-color="white"/>
</linearGradient>
<linearGradient id="paint37_linear_561_44541" x1="-61.3299" y1="-89.7248" x2="-6.75308" y2="32.8567" gradientUnits="userSpaceOnUse">
<stop stop-color="#F9FBE1"/>
<stop offset="1" stop-color="white"/>
</linearGradient>
<linearGradient id="paint38_linear_561_44541" x1="-61.3377" y1="-92.0677" x2="-12.0695" y2="29.8753" gradientUnits="userSpaceOnUse">
<stop stop-color="#F9FBE1"/>
<stop offset="1" stop-color="white"/>
</linearGradient>
<linearGradient id="paint39_linear_561_44541" x1="-61.4034" y1="-94.3027" x2="-17.3315" y2="26.7836" gradientUnits="userSpaceOnUse">
<stop stop-color="#F9FBE1"/>
<stop offset="1" stop-color="white"/>
</linearGradient>
<linearGradient id="paint40_linear_561_44541" x1="-61.5262" y1="-96.4331" x2="-22.5297" y2="23.5856" gradientUnits="userSpaceOnUse">
<stop stop-color="#F9FBE1"/>
<stop offset="1" stop-color="white"/>
</linearGradient>
<linearGradient id="paint41_linear_561_44541" x1="-61.7171" y1="-98.4576" x2="-27.6668" y2="20.2896" gradientUnits="userSpaceOnUse">
<stop stop-color="#F9FBE1"/>
<stop offset="1" stop-color="white"/>
</linearGradient>
<linearGradient id="paint42_linear_561_44541" x1="-61.975" y1="-100.386" x2="-32.7338" y2="16.8942" gradientUnits="userSpaceOnUse">
<stop stop-color="#F9FBE1"/>
<stop offset="1" stop-color="white"/>
</linearGradient>
</defs>
</svg>
