<svg width="20" height="21" viewBox="0 0 20 21" fill="none" xmlns="http://www.w3.org/2000/svg">
<g id="icon / truck">
<path id="icon" fill-rule="evenodd" clip-rule="evenodd" d="M5.83301 18C6.92152 18 7.84756 17.3043 8.19075 16.3333H13.4753C13.8185 17.3043 14.7445 18 15.833 18C16.9215 18 17.8476 17.3043 18.1908 16.3333H18.333C18.7932 16.3333 19.1663 15.9602 19.1663 15.5V12.6972C19.1663 12.2308 19.0685 11.7696 18.879 11.3434L18.0877 9.56287C17.5527 8.35911 16.359 7.58333 15.0417 7.58333H13.333V6.33333C13.333 4.49238 11.8406 3 9.99967 3H4.16634C2.32539 3 0.833008 4.49238 0.833008 6.33333V14.6667C0.833008 15.5871 1.5792 16.3333 2.49967 16.3333H3.47526C3.81846 17.3043 4.74449 18 5.83301 18ZM2.49967 6.33333C2.49967 5.41286 3.24587 4.66667 4.16634 4.66667H9.99967C10.9201 4.66667 11.6663 5.41286 11.6663 6.33333V14.6667H8.19075C7.84756 13.6957 6.92152 13 5.83301 13C4.74449 13 3.81846 13.6957 3.47526 14.6667H2.49967V6.33333ZM17.356 12.0203C17.4507 12.2334 17.4997 12.464 17.4997 12.6972V13.6366C17.0574 13.2407 16.4733 13 15.833 13C14.7445 13 13.8185 13.6957 13.4753 14.6667H13.333V9.25H15.0417C15.7003 9.25 16.2972 9.63789 16.5647 10.2398L17.356 12.0203ZM4.99967 15.5C4.99967 15.0398 5.37277 14.6667 5.83301 14.6667C6.29324 14.6667 6.66634 15.0398 6.66634 15.5C6.66634 15.9602 6.29324 16.3333 5.83301 16.3333C5.37277 16.3333 4.99967 15.9602 4.99967 15.5ZM14.9997 15.5C14.9997 15.0398 15.3728 14.6667 15.833 14.6667C16.2932 14.6667 16.6663 15.0398 16.6663 15.5C16.6663 15.9602 16.2932 16.3333 15.833 16.3333C15.3728 16.3333 14.9997 15.9602 14.9997 15.5Z" fill="#6F7A8D"/>
</g>
</svg>
