<svg width="44" height="45" viewBox="0 0 44 45" fill="none" xmlns="http://www.w3.org/2000/svg">
<g id="Group 47697">
<ellipse id="Ellipse 33" cx="22" cy="22.376" rx="22" ry="22" fill="white"/>
<g id="Group 47685">
<path id="Vector" d="M11.0449 16.1507C11.0819 15.9869 11.1136 15.8216 11.1559 15.66C11.3498 14.922 11.7814 14.2684 12.3839 13.8003C12.9865 13.3321 13.7264 13.0755 14.4895 13.07C19.5593 13.0665 24.6288 13.0665 29.6981 13.07C31.6231 13.07 33.1328 14.61 33.1555 16.5606C33.163 17.24 33.1555 17.9134 33.1555 18.589V18.8487C33.6182 18.9136 34.016 19.0751 34.2999 19.4428C34.529 19.7357 34.6508 20.0983 34.6449 20.4701C34.6449 21.715 34.6449 22.9613 34.6449 24.2038C34.6449 25.1059 34.1783 25.6698 33.2861 25.851C33.2483 25.8585 33.2106 25.8713 33.154 25.8879C33.154 26.599 33.16 27.3124 33.154 28.0258C33.1557 28.302 33.1335 28.5778 33.0875 28.8501C32.9415 29.6471 32.5197 30.3674 31.896 30.8847C31.2723 31.4019 30.4865 31.6833 29.6762 31.6794C27.7173 31.687 25.7584 31.6794 23.7994 31.6794C20.7195 31.6794 17.6393 31.6794 14.5589 31.6794C12.9465 31.6794 11.5816 30.6414 11.1619 29.1128C11.1204 28.9422 11.0842 28.7663 11.0449 28.598V16.1507ZM31.8797 18.8622C31.8797 17.9405 31.8797 17.0588 31.8759 16.1771C31.8663 16.0622 31.839 15.9494 31.7952 15.8427C31.4774 14.8938 30.6319 14.3111 29.5667 14.3103C24.589 14.3103 19.6113 14.3103 14.6336 14.3103C14.5725 14.3103 14.5113 14.3103 14.4494 14.3103C13.8701 14.3287 13.3207 14.5721 12.9178 14.9889C12.5149 15.4056 12.2902 15.9628 12.2912 16.5425C12.2857 20.4226 12.2857 24.3024 12.2912 28.182C12.2935 28.4272 12.3343 28.6704 12.412 28.903C12.7238 29.839 13.5617 30.4067 14.6072 30.4074H29.5886C29.6641 30.4074 29.7396 30.4074 29.8151 30.4022C30.8538 30.3561 31.7974 29.5144 31.8714 28.4787C31.9318 27.6227 31.8948 26.7598 31.9001 25.9C31.9001 25.8879 31.885 25.8751 31.8631 25.8404H31.6057C29.408 25.8404 27.211 25.8404 25.0148 25.8404C24.8153 25.8437 24.6158 25.8334 24.4177 25.8094C22.5033 25.5422 21.0841 23.7418 21.5793 21.4953C21.9251 19.9266 23.274 18.8721 24.9008 18.8653C27.136 18.8562 29.372 18.8653 31.6072 18.8653L31.8797 18.8622ZM28.9077 24.628H32.9366C33.308 24.628 33.3978 24.5375 33.3985 24.1661V20.5705C33.3985 20.218 33.3027 20.1176 32.9456 20.1176C30.2879 20.1176 27.6302 20.1176 24.9725 20.1176C23.4703 20.1176 22.4527 21.4054 22.7736 22.8782C23 23.9351 23.8538 24.6145 24.9627 24.6213C26.28 24.6318 27.5935 24.6273 28.907 24.628H28.9077Z" fill="#1B1917" stroke="#1B1917" stroke-width="0.5"/>
<path id="Vector_2" d="M25.0721 21.3517C25.6587 21.3562 26.0739 21.76 26.0724 22.3247C26.0767 22.4587 26.0541 22.5921 26.006 22.7172C25.9579 22.8423 25.8852 22.9565 25.7922 23.053C25.6992 23.1495 25.5879 23.2264 25.4647 23.2792C25.3415 23.332 25.209 23.3595 25.0749 23.3602C24.9409 23.3609 24.8081 23.3348 24.6844 23.2833C24.5606 23.2318 24.4484 23.1561 24.3545 23.0606C24.2605 22.965 24.1866 22.8516 24.1371 22.727C24.0877 22.6025 24.0637 22.4693 24.0666 22.3353C24.0677 22.2046 24.0946 22.0753 24.1458 21.9551C24.197 21.8348 24.2715 21.7258 24.3649 21.6344C24.4583 21.543 24.5689 21.471 24.6903 21.4224C24.8117 21.3739 24.9414 21.3499 25.0721 21.3517Z" fill="#1B1917" stroke="#1B1917" stroke-width="0.5"/>
</g>
</g>
</svg>
