<svg width="20" height="20" viewBox="0 0 20 20" fill="none" xmlns="http://www.w3.org/2000/svg">
<g id="icon / NFT-profile">
<g id="icon">
<path fill-rule="evenodd" clip-rule="evenodd" d="M9.999 5.41699C8.15805 5.41699 6.66567 6.90938 6.66567 8.75033C6.66567 10.5913 8.15805 12.0837 9.999 12.0837C11.8399 12.0837 13.3323 10.5913 13.3323 8.75033C13.3323 6.90938 11.8399 5.41699 9.999 5.41699ZM8.33233 8.75033C8.33233 7.82985 9.07853 7.08366 9.999 7.08366C10.9195 7.08366 11.6657 7.82985 11.6657 8.75033C11.6657 9.6708 10.9195 10.417 9.999 10.417C9.07853 10.417 8.33233 9.6708 8.33233 8.75033Z" fill="white"/>
<path fill-rule="evenodd" clip-rule="evenodd" d="M6.81301 1.66699C5.90509 1.66699 5.06854 2.15922 4.62761 2.95289L1.38687 8.78622C0.967396 9.54128 0.967397 10.4594 1.38687 11.2144L4.62761 17.0478C5.06854 17.8414 5.90509 18.3337 6.81301 18.3337H13.185C14.0929 18.3337 14.9295 17.8414 15.3704 17.0478L18.6111 11.2144C19.0306 10.4594 19.0306 9.54127 18.6111 8.78622L15.3704 2.95289C14.9295 2.15922 14.0929 1.66699 13.185 1.66699H6.81301ZM6.08454 3.76229C6.23152 3.49774 6.51037 3.33366 6.81301 3.33366H13.185C13.4876 3.33366 13.7665 3.49774 13.9135 3.76229L17.1542 9.59562C17.294 9.84731 17.294 10.1533 17.1542 10.405L15.0175 14.2511C14.7039 14.0689 14.3095 13.8513 13.8671 13.6329C12.8001 13.1063 11.3229 12.508 10.0038 12.5003C8.77513 12.4932 7.41496 12.9958 6.3735 13.4795C5.82973 13.732 5.34112 13.9946 4.95932 14.213L2.8438 10.405C2.70398 10.1533 2.70398 9.84731 2.8438 9.59562L6.08454 3.76229ZM13.1295 15.1275C13.5452 15.3327 13.9162 15.5381 14.2079 15.7083L13.9135 16.2384C13.7665 16.5029 13.4876 16.667 13.185 16.667H6.81301C6.51037 16.667 6.23152 16.5029 6.08454 16.2384L5.7688 15.67C6.11895 15.4692 6.57203 15.2249 7.07545 14.9911C8.07321 14.5278 9.15239 14.1621 9.99416 14.167C10.9077 14.1723 12.0926 14.6157 13.1295 15.1275Z" fill="white"/>
</g>
</g>
</svg>
